<svg width="128" height="147" viewBox="0 0 128 147" fill="none" xmlns="http://www.w3.org/2000/svg">
<g clip-path="url(#clip0_3_4434)">
<path d="M64.0474 110.25C84.4696 110.25 101.025 93.7965 101.025 73.5C101.025 53.2036 84.4696 36.75 64.0474 36.75C43.6251 36.75 27.0696 53.2036 27.0696 73.5C27.0696 93.7965 43.6251 110.25 64.0474 110.25Z" stroke="white" stroke-width="0.3"/>
<path d="M-3.8147e-06 110.25C20.4223 110.25 36.9778 93.7965 36.9778 73.5C36.9778 53.2036 20.4223 36.75 -3.8147e-06 36.75C-20.4223 36.75 -36.9778 53.2036 -36.9778 73.5C-36.9778 93.7965 -20.4223 110.25 -3.8147e-06 110.25Z" stroke="white" stroke-width="0.3"/>
<path d="M128.095 110.25C148.517 110.25 165.073 93.7965 165.073 73.5C165.073 53.2036 148.517 36.75 128.095 36.75C107.673 36.75 91.1171 53.2036 91.1171 73.5C91.1171 93.7965 107.673 110.25 128.095 110.25Z" stroke="white" stroke-width="0.3"/>
<path d="M64.0474 147C84.4696 147 101.025 130.547 101.025 110.25C101.025 89.9536 84.4696 73.5 64.0474 73.5C43.6251 73.5 27.0696 89.9536 27.0696 110.25C27.0696 130.547 43.6251 147 64.0474 147Z" stroke="white" stroke-width="0.3"/>
<path d="M-3.8147e-06 147C20.4223 147 36.9778 130.547 36.9778 110.25C36.9778 89.9536 20.4223 73.5 -3.8147e-06 73.5C-20.4223 73.5 -36.9778 89.9536 -36.9778 110.25C-36.9778 130.547 -20.4223 147 -3.8147e-06 147Z" stroke="white" stroke-width="0.3"/>
<path d="M128.095 147C148.517 147 165.073 130.547 165.073 110.25C165.073 89.9536 148.517 73.5 128.095 73.5C107.673 73.5 91.1171 89.9536 91.1171 110.25C91.1171 130.547 107.673 147 128.095 147Z" stroke="white" stroke-width="0.3"/>
<path d="M64.0474 73.5C84.4696 73.5 101.025 57.0465 101.025 36.75C101.025 16.4536 84.4696 3.91006e-05 64.0474 3.91006e-05C43.6251 3.91006e-05 27.0696 16.4536 27.0696 36.75C27.0696 57.0465 43.6251 73.5 64.0474 73.5Z" stroke="white" stroke-width="0.3"/>
<path d="M-3.8147e-06 73.5C20.4223 73.5 36.9778 57.0465 36.9778 36.75C36.9778 16.4536 20.4223 3.8147e-05 -3.8147e-06 3.8147e-05C-20.4223 3.8147e-05 -36.9778 16.4536 -36.9778 36.75C-36.9778 57.0465 -20.4223 73.5 -3.8147e-06 73.5Z" stroke="white" stroke-width="0.3"/>
<path d="M128.095 73.5C148.517 73.5 165.073 57.0465 165.073 36.75C165.073 16.4536 148.517 3.91006e-05 128.095 3.91006e-05C107.673 3.91006e-05 91.1171 16.4536 91.1171 36.75C91.1171 57.0465 107.673 73.5 128.095 73.5Z" stroke="white" stroke-width="0.3"/>
<path d="M64.0474 183.75C84.4696 183.75 101.025 167.296 101.025 147C101.025 126.704 84.4696 110.25 64.0474 110.25C43.6251 110.25 27.0696 126.704 27.0696 147C27.0696 167.296 43.6251 183.75 64.0474 183.75Z" stroke="white" stroke-width="0.3"/>
<path d="M64.0474 36.75C84.4696 36.75 101.025 20.2965 101.025 4.00543e-05C101.025 -20.2964 84.4696 -36.75 64.0474 -36.75C43.6251 -36.75 27.0696 -20.2964 27.0696 4.00543e-05C27.0696 20.2965 43.6251 36.75 64.0474 36.75Z" stroke="white" stroke-width="0.3"/>
<path d="M96.0712 91.875C116.493 91.875 133.049 75.4215 133.049 55.125C133.049 34.8286 116.493 18.375 96.0712 18.375C75.6489 18.375 59.0934 34.8286 59.0934 55.125C59.0934 75.4215 75.6489 91.875 96.0712 91.875Z" stroke="white" stroke-width="0.3"/>
<path d="M96.0712 128.625C116.493 128.625 133.049 112.172 133.049 91.875C133.049 71.5786 116.493 55.125 96.0712 55.125C75.6489 55.125 59.0934 71.5786 59.0934 91.875C59.0934 112.172 75.6489 128.625 96.0712 128.625Z" stroke="white" stroke-width="0.3"/>
<path d="M96.0712 165.375C116.493 165.375 133.049 148.922 133.049 128.625C133.049 108.329 116.493 91.875 96.0712 91.875C75.6489 91.875 59.0934 108.329 59.0934 128.625C59.0934 148.922 75.6489 165.375 96.0712 165.375Z" stroke="white" stroke-width="0.3"/>
<path d="M96.0712 55.125C116.493 55.125 133.049 38.6715 133.049 18.375C133.049 -1.92142 116.493 -18.375 96.0712 -18.375C75.6489 -18.375 59.0934 -1.92142 59.0934 18.375C59.0934 38.6715 75.6489 55.125 96.0712 55.125Z" stroke="white" stroke-width="0.3"/>
<path d="M32.0237 91.875C52.4459 91.875 69.0015 75.4215 69.0015 55.125C69.0015 34.8286 52.4459 18.375 32.0237 18.375C11.6014 18.375 -4.9541 34.8286 -4.9541 55.125C-4.9541 75.4215 11.6014 91.875 32.0237 91.875Z" stroke="white" stroke-width="0.3"/>
<path d="M32.0237 128.625C52.4459 128.625 69.0015 112.172 69.0015 91.875C69.0015 71.5786 52.4459 55.125 32.0237 55.125C11.6014 55.125 -4.9541 71.5786 -4.9541 91.875C-4.9541 112.172 11.6014 128.625 32.0237 128.625Z" stroke="white" stroke-width="0.3"/>
<path d="M32.0237 165.375C52.4459 165.375 69.0015 148.922 69.0015 128.625C69.0015 108.329 52.4459 91.875 32.0237 91.875C11.6014 91.875 -4.9541 108.329 -4.9541 128.625C-4.9541 148.922 11.6014 165.375 32.0237 165.375Z" stroke="white" stroke-width="0.3"/>
<path d="M32.0237 55.125C52.4459 55.125 69.0015 38.6715 69.0015 18.375C69.0015 -1.92143 52.4459 -18.375 32.0237 -18.375C11.6014 -18.375 -4.9541 -1.92143 -4.9541 18.375C-4.9541 38.6715 11.6014 55.125 32.0237 55.125Z" stroke="white" stroke-width="0.3"/>
<path d="M64.0474 183.75C68.951 175.309 70.2798 165.278 67.7415 155.863C65.2032 146.449 59.0058 138.422 50.5126 133.549C42.0194 128.675 31.9261 127.355 22.4531 129.877C12.9802 132.4 4.90356 138.559 3.68383e-06 147" stroke="white" stroke-width="0.3"/>
<path d="M32.0237 165.375C36.9273 156.934 38.2561 146.903 35.7178 137.488C33.1795 128.074 26.9821 120.047 18.4889 115.174C9.99569 110.3 -0.097589 108.98 -9.57054 111.502C-19.0435 114.025 -27.1201 120.184 -32.0237 128.625" stroke="white" stroke-width="0.3"/>
<path d="M-2.44267e-05 4.32298e-05C4.90353 8.44094 12.9802 14.6002 22.4531 17.1228C31.9261 19.6454 42.0193 18.3248 50.5126 13.4515C59.0058 8.57812 65.2032 0.551232 67.7415 -8.86336C70.2797 -18.278 68.9509 -28.3091 64.0474 -36.75" stroke="white" stroke-width="0.3"/>
<path d="M-32.0237 18.375C-27.1201 26.8159 -19.0435 32.9752 -9.57056 35.4978C-0.0976146 38.0204 9.99567 36.6998 18.4889 31.8265C26.9821 26.9531 33.1795 18.9262 35.7178 9.51162C38.256 0.0970271 36.9272 -9.93408 32.0237 -18.375" stroke="white" stroke-width="0.3"/>
<path d="M64.0475 -36.75C59.1439 -28.3091 57.8151 -18.278 60.3534 -8.86336C62.8916 0.551231 69.089 8.57811 77.5823 13.4515C86.0755 18.3248 96.1688 19.6454 105.642 17.1228C115.115 14.6002 123.191 8.44093 128.095 4.03479e-05" stroke="white" stroke-width="0.3"/>
<path d="M96.0711 -18.375C91.1676 -9.93408 89.8388 0.0970333 92.377 9.51163C94.9153 18.9262 101.113 26.9531 109.606 31.8265C118.099 36.6998 128.192 38.0204 137.665 35.4978C147.138 32.9752 155.215 26.8159 160.119 18.375" stroke="white" stroke-width="0.3"/>
<path d="M128.095 147C123.191 138.559 115.115 132.4 105.642 129.877C96.1687 127.355 86.0754 128.675 77.5822 133.549C69.089 138.422 62.8915 146.449 60.3533 155.863C57.815 165.278 59.1438 175.309 64.0474 183.75" stroke="white" stroke-width="0.3"/>
<path d="M160.119 128.625C155.215 120.184 147.138 114.025 137.665 111.502C128.192 108.98 118.099 110.3 109.606 115.174C101.113 120.047 94.9153 128.074 92.3771 137.488C89.8388 146.903 91.1676 156.934 96.0712 165.375" stroke="white" stroke-width="0.3"/>
<path d="M160.116 18.3774C150.309 18.3774 140.904 22.2492 133.969 29.1412C127.034 36.0332 123.138 45.3807 123.138 55.1274C123.138 64.8741 127.034 74.2216 133.969 81.1136C140.904 88.0055 150.309 91.8774 160.116 91.8774" stroke="white" stroke-width="0.3"/>
<path d="M160.116 55.1227C150.309 55.1227 140.904 58.9945 133.969 65.8865C127.034 72.7785 123.138 82.126 123.138 91.8727C123.138 101.619 127.034 110.967 133.969 117.859C140.904 124.751 150.309 128.623 160.116 128.623" stroke="white" stroke-width="0.3"/>
<path d="M-32.0214 91.8774C-22.2142 91.8774 -12.8088 88.0055 -5.87412 81.1136C1.06056 74.2216 4.95642 64.8741 4.95642 55.1274C4.95642 45.3807 1.06056 36.0332 -5.87412 29.1412C-12.8088 22.2493 -22.2142 18.3774 -32.0214 18.3774" stroke="white" stroke-width="0.3"/>
<path d="M-32.0214 128.623C-22.2142 128.623 -12.8088 124.751 -5.87412 117.859C1.06056 110.967 4.95642 101.619 4.95642 91.8727C4.95642 82.126 1.06056 72.7785 -5.87412 65.8865C-12.8088 58.9946 -22.2142 55.1227 -32.0214 55.1227" stroke="white" stroke-width="0.3"/>
<path d="M96.0711 165.375C92.8256 159.788 88.1576 155.149 82.5363 151.924C76.9149 148.698 70.5383 147 64.0474 147C57.5564 147 51.1798 148.698 45.5585 151.924C39.9372 155.149 35.2692 159.788 32.0237 165.375" stroke="white" stroke-width="0.3"/>
<path d="M32.0948 -18.375C35.3403 -12.7883 40.0083 -8.14901 45.6296 -4.92352C51.2509 -1.69803 57.6275 5.34058e-05 64.1185 5.34058e-05C70.6095 5.34058e-05 76.9861 -1.69803 82.6074 -4.92352C88.2287 -8.14901 92.8967 -12.7883 96.1422 -18.375" stroke="white" stroke-width="0.3"/>
<path d="M-32.024 55.1252C-25.533 55.1252 -19.1564 53.4271 -13.5351 50.2016C-7.91373 46.9761 -3.24573 42.3369 -0.000255595 36.7502C3.24522 31.1635 4.95383 24.8261 4.95383 18.3752C4.95382 11.9242 3.24522 5.58687 -0.00026369 0.000167571" stroke="white" stroke-width="0.3"/>
<path d="M160.119 91.8751C153.628 91.8751 147.251 93.5731 141.63 96.7986C136.008 100.024 131.34 104.663 128.095 110.25C124.849 115.837 123.141 122.174 123.141 128.625C123.141 135.076 124.849 141.413 128.095 147" stroke="white" stroke-width="0.3"/>
<path d="M128.095 0.000194086C124.85 5.5869 123.141 11.9242 123.141 18.3752C123.141 24.8262 124.85 31.1635 128.095 36.7502C131.341 42.3369 136.009 46.9762 141.63 50.2016C147.251 53.4271 153.628 55.1252 160.119 55.1252" stroke="white" stroke-width="0.3"/>
<path d="M3.35938e-06 147C3.24549 141.413 4.95409 135.076 4.95409 128.625C4.95409 122.174 3.24549 115.837 1.14545e-05 110.25C-3.24547 104.663 -7.91347 100.024 -13.5348 96.7986C-19.1561 93.5731 -25.5327 91.875 -32.0237 91.875" stroke="white" stroke-width="0.3"/>
<path d="M64.0474 183.75C60.8019 178.163 56.1339 173.524 50.5126 170.299C44.8913 167.073 38.5147 165.375 32.0237 165.375C28.7782 159.788 24.1102 155.149 18.4889 151.924C12.8676 148.698 6.49098 147 2.1069e-05 147C-3.24546 141.413 -7.91345 136.774 -13.5348 133.549C-19.1561 130.323 -25.5327 128.625 -32.0237 128.625" stroke="white" stroke-width="0.3"/>
<path d="M160.118 128.625C153.627 128.625 147.251 130.323 141.63 133.549C136.008 136.774 131.34 141.413 128.095 147C121.604 147 115.227 148.698 109.606 151.924C103.985 155.149 99.3165 159.788 96.071 165.375C89.5801 165.375 83.2035 167.073 77.5822 170.299C71.9608 173.524 67.2928 178.163 64.0474 183.75" stroke="white" stroke-width="0.3"/>
<path d="M-32.0237 18.375C-25.5328 18.375 -19.1562 16.6769 -13.5348 13.4514C-7.91349 10.2259 -3.24549 5.58671 -1.35358e-05 2.66538e-07C6.49094 -1.46032e-07 12.8675 -1.69808 18.4889 -4.92357C24.1102 -8.14905 28.7782 -12.7883 32.0237 -18.375C38.5146 -18.375 44.8912 -20.0731 50.5126 -23.2986C56.1339 -26.5241 60.8019 -31.1633 64.0474 -36.75" stroke="white" stroke-width="0.3"/>
<path d="M64.0474 -36.75C67.2929 -31.1632 71.9609 -26.524 77.5822 -23.2985C83.2036 -20.073 89.5802 -18.375 96.0711 -18.375C99.3166 -12.7882 103.985 -8.14901 109.606 -4.92352C115.227 -1.69803 121.604 4.75533e-05 128.095 4.79658e-05C131.34 5.58675 136.008 10.226 141.63 13.4515C147.251 16.677 153.628 18.375 160.119 18.375" stroke="white" stroke-width="0.3"/>
</g>
<defs>
<clipPath id="clip0_3_4434">
<rect width="128" height="147" fill="white"/>
</clipPath>
</defs>
</svg>
