<svg width="270" height="312" viewBox="0 0 270 312" fill="none" xmlns="http://www.w3.org/2000/svg">
<g clip-path="url(#clip0_3_4434)">
<path d="M135.1 234C178.178 234 213.1 199.078 213.1 156C213.1 112.922 178.178 78.0001 135.1 78.0001C92.0218 78.0001 57.1 112.922 57.1 156C57.1 199.078 92.0218 234 135.1 234Z" stroke="#1E1E1E" stroke-width="2"/>
<path d="M0 234C43.0782 234 78 199.078 78 156C78 112.922 43.0782 78.0001 0 78.0001C-43.0782 78.0001 -78 112.922 -78 156C-78 199.078 -43.0782 234 0 234Z" stroke="#1E1E1E" stroke-width="2"/>
<path d="M270.2 234C313.278 234 348.2 199.078 348.2 156C348.2 112.922 313.278 78.0001 270.2 78.0001C227.122 78.0001 192.2 112.922 192.2 156C192.2 199.078 227.122 234 270.2 234Z" stroke="#1E1E1E" stroke-width="2"/>
<path d="M135.1 312C178.178 312 213.1 277.078 213.1 234C213.1 190.922 178.178 156 135.1 156C92.0218 156 57.1 190.922 57.1 234C57.1 277.078 92.0218 312 135.1 312Z" stroke="#1E1E1E" stroke-width="2"/>
<path d="M0 312C43.0782 312 78 277.078 78 234C78 190.922 43.0782 156 0 156C-43.0782 156 -78 190.922 -78 234C-78 277.078 -43.0782 312 0 312Z" stroke="#1E1E1E" stroke-width="2"/>
<path d="M270.2 312C313.278 312 348.2 277.078 348.2 234C348.2 190.922 313.278 156 270.2 156C227.122 156 192.2 190.922 192.2 234C192.2 277.078 227.122 312 270.2 312Z" stroke="#1E1E1E" stroke-width="2"/>
<path d="M135.1 156C178.178 156 213.1 121.078 213.1 78.0001C213.1 34.9219 178.178 8.39233e-05 135.1 8.39233e-05C92.0218 8.39233e-05 57.1 34.9219 57.1 78.0001C57.1 121.078 92.0218 156 135.1 156Z" stroke="#1E1E1E" stroke-width="2"/>
<path d="M0 156C43.0782 156 78 121.078 78 78.0001C78 34.9219 43.0782 8.39233e-05 0 8.39233e-05C-43.0782 8.39233e-05 -78 34.9219 -78 78.0001C-78 121.078 -43.0782 156 0 156Z" stroke="#1E1E1E" stroke-width="2"/>
<path d="M270.2 156C313.278 156 348.2 121.078 348.2 78.0001C348.2 34.9219 313.278 8.39233e-05 270.2 8.39233e-05C227.122 8.39233e-05 192.2 34.9219 192.2 78.0001C192.2 121.078 227.122 156 270.2 156Z" stroke="#1E1E1E" stroke-width="2"/>
<path d="M135.1 390C178.178 390 213.1 355.078 213.1 312C213.1 268.922 178.178 234 135.1 234C92.0218 234 57.1 268.922 57.1 312C57.1 355.078 92.0218 390 135.1 390Z" stroke="#1E1E1E" stroke-width="2"/>
<path d="M135.1 78.0001C178.178 78.0001 213.1 43.0783 213.1 8.39233e-05C213.1 -43.0781 178.178 -77.9999 135.1 -77.9999C92.0218 -77.9999 57.1 -43.0781 57.1 8.39233e-05C57.1 43.0783 92.0218 78.0001 135.1 78.0001Z" stroke="#1E1E1E" stroke-width="2"/>
<path d="M202.65 195C245.728 195 280.65 160.078 280.65 117C280.65 73.9219 245.728 39.0001 202.65 39.0001C159.572 39.0001 124.65 73.9219 124.65 117C124.65 160.078 159.572 195 202.65 195Z" stroke="#1E1E1E" stroke-width="2"/>
<path d="M202.65 273C245.728 273 280.65 238.078 280.65 195C280.65 151.922 245.728 117 202.65 117C159.572 117 124.65 151.922 124.65 195C124.65 238.078 159.572 273 202.65 273Z" stroke="#1E1E1E" stroke-width="2"/>
<path d="M202.65 351C245.728 351 280.65 316.078 280.65 273C280.65 229.922 245.728 195 202.65 195C159.572 195 124.65 229.922 124.65 273C124.65 316.078 159.572 351 202.65 351Z" stroke="#1E1E1E" stroke-width="2"/>
<path d="M202.65 117C245.728 117 280.65 82.0783 280.65 39.0001C280.65 -4.07812 245.728 -38.9999 202.65 -38.9999C159.572 -38.9999 124.65 -4.07812 124.65 39.0001C124.65 82.0783 159.572 117 202.65 117Z" stroke="#1E1E1E" stroke-width="2"/>
<path d="M67.55 195C110.628 195 145.55 160.078 145.55 117C145.55 73.9219 110.628 39.0001 67.55 39.0001C24.4718 39.0001 -10.45 73.9219 -10.45 117C-10.45 160.078 24.4718 195 67.55 195Z" stroke="#1E1E1E" stroke-width="2"/>
<path d="M67.55 273C110.628 273 145.55 238.078 145.55 195C145.55 151.922 110.628 117 67.55 117C24.4718 117 -10.45 151.922 -10.45 195C-10.45 238.078 24.4718 273 67.55 273Z" stroke="#1E1E1E" stroke-width="2"/>
<path d="M67.55 351C110.628 351 145.55 316.078 145.55 273C145.55 229.922 110.628 195 67.55 195C24.4718 195 -10.45 229.922 -10.45 273C-10.45 316.078 24.4718 351 67.55 351Z" stroke="#1E1E1E" stroke-width="2"/>
<path d="M67.55 117C110.628 117 145.55 82.0783 145.55 39.0001C145.55 -4.07812 110.628 -38.9999 67.55 -38.9999C24.4718 -38.9999 -10.45 -4.07812 -10.45 39.0001C-10.45 82.0783 24.4718 117 67.55 117Z" stroke="#1E1E1E" stroke-width="2"/>
<path d="M135.1 390C145.443 372.085 148.246 350.794 142.892 330.812C137.538 310.83 124.465 293.794 106.55 283.45C88.6346 273.107 67.3441 270.304 47.3621 275.658C27.3801 281.012 10.3434 294.085 -5.81145e-07 312" stroke="#1E1E1E" stroke-width="2"/>
<path d="M67.55 351C77.8935 333.085 80.6964 311.794 75.3423 291.812C69.9881 271.83 56.9154 254.794 39.0001 244.45C21.0847 234.107 -0.205832 231.304 -20.1878 236.658C-40.1698 242.012 -57.2065 255.085 -67.5499 273" stroke="#1E1E1E" stroke-width="2"/>
<path d="M-0.000109644 7.63305e-05C10.3433 17.9154 27.38 30.9881 47.362 36.3423C67.344 41.6964 88.6345 38.8935 106.55 28.5501C124.465 18.2066 137.538 1.16996 142.892 -18.812C148.246 -38.794 145.443 -60.0846 135.1 -77.9999" stroke="#1E1E1E" stroke-width="2"/>
<path d="M-67.55 39C-57.2066 56.9154 -40.1699 69.9881 -20.1879 75.3423C-0.205936 80.6964 21.0846 77.8935 38.9999 67.55C56.9153 57.2066 69.988 40.1699 75.3422 20.1879C80.6963 0.205931 77.8934 -21.0846 67.5499 -39" stroke="#1E1E1E" stroke-width="2"/>
<path d="M135.1 -77.9999C124.757 -60.0845 121.954 -38.794 127.308 -18.812C132.662 1.16997 145.735 18.2066 163.65 28.5501C181.565 38.8935 202.856 41.6965 222.838 36.3423C242.82 30.9881 259.857 17.9155 270.2 8.27976e-05" stroke="#1E1E1E" stroke-width="2"/>
<path d="M202.65 -38.9999C192.307 -21.0846 189.504 0.205941 194.858 20.1879C200.212 40.1699 213.285 57.2066 231.2 67.55C249.116 77.8935 270.406 80.6964 290.388 75.3423C310.37 69.9881 327.407 56.9154 337.75 39.0001" stroke="#1E1E1E" stroke-width="2"/>
<path d="M270.2 312C259.856 294.085 242.82 281.012 222.838 275.658C202.856 270.304 181.565 273.107 163.65 283.45C145.735 293.794 132.662 310.83 127.308 330.812C121.954 350.794 124.757 372.085 135.1 390" stroke="#1E1E1E" stroke-width="2"/>
<path d="M337.75 273C327.407 255.085 310.37 242.012 290.388 236.658C270.406 231.304 249.115 234.107 231.2 244.45C213.285 254.794 200.212 271.83 194.858 291.812C189.504 311.794 192.307 333.085 202.65 351" stroke="#1E1E1E" stroke-width="2"/>
<path d="M337.745 39.0051C317.058 39.0051 297.219 47.2229 282.591 61.8507C267.963 76.4786 259.745 96.3182 259.745 117.005C259.745 137.692 267.963 157.532 282.591 172.159C297.219 186.787 317.058 195.005 337.745 195.005" stroke="#1E1E1E" stroke-width="2"/>
<path d="M337.745 116.995C317.058 116.995 297.219 125.213 282.591 139.841C267.963 154.469 259.745 174.308 259.745 194.995C259.745 215.682 267.963 235.522 282.591 250.149C297.219 264.777 317.058 272.995 337.745 272.995" stroke="#1E1E1E" stroke-width="2"/>
<path d="M-67.545 195.005C-46.8582 195.005 -27.0186 186.787 -12.3907 172.159C2.23712 157.532 10.455 137.692 10.455 117.005C10.455 96.3182 2.23712 76.4786 -12.3907 61.8508C-27.0186 47.2229 -46.8582 39.0051 -67.545 39.0051" stroke="#1E1E1E" stroke-width="2"/>
<path d="M-67.545 272.995C-46.8582 272.995 -27.0186 264.777 -12.3907 250.149C2.23712 235.522 10.455 215.682 10.455 194.995C10.455 174.308 2.23712 154.469 -12.3907 139.841C-27.0186 125.213 -46.8582 116.995 -67.545 116.995" stroke="#1E1E1E" stroke-width="2"/>
<path d="M202.65 351C195.804 339.143 185.958 329.296 174.1 322.45C162.243 315.604 148.792 312 135.1 312C121.408 312 107.958 315.604 96.1 322.45C84.2425 329.296 74.396 339.143 67.55 351" stroke="#1E1E1E" stroke-width="2"/>
<path d="M67.7 -38.9999C74.546 -27.1424 84.3925 -17.2959 96.25 -10.4499C108.108 -3.60398 121.558 0.000114441 135.25 0.000114441C148.942 0.000114441 162.393 -3.60398 174.25 -10.4499C186.108 -17.2959 195.954 -27.1424 202.8 -38.9999" stroke="#1E1E1E" stroke-width="2"/>
<path d="M-67.5505 117C-53.8586 117 -40.408 113.396 -28.5505 106.55C-16.693 99.7044 -6.8464 89.8579 -0.00046437 78.0004C6.84547 66.1429 10.4496 52.6922 10.4496 39.0004C10.4495 25.3085 6.84546 11.8579 -0.000483584 0.000356765" stroke="#1E1E1E" stroke-width="2"/>
<path d="M337.75 195C324.058 195 310.607 198.604 298.75 205.45C286.892 212.296 277.046 222.143 270.2 234C263.354 245.858 259.75 259.308 259.75 273C259.75 286.692 263.354 300.143 270.2 312" stroke="#1E1E1E" stroke-width="2"/>
<path d="M270.2 0.000393735C263.355 11.8579 259.75 25.3085 259.75 39.0004C259.75 52.6923 263.355 66.1429 270.2 78.0004C277.046 89.8579 286.893 99.7045 298.75 106.55C310.608 113.396 324.059 117 337.75 117" stroke="#1E1E1E" stroke-width="2"/>
<path d="M7.89462e-05 312C6.84602 300.143 10.4501 286.692 10.4501 273C10.4501 259.308 6.84603 245.858 9.81595e-05 234C-6.84583 222.143 -16.6924 212.296 -28.5499 205.45C-40.4074 198.604 -53.8581 195 -67.5499 195" stroke="#1E1E1E" stroke-width="2"/>
<path d="M135.1 390C128.254 378.143 118.408 368.296 106.55 361.45C94.6925 354.604 81.2419 351 67.55 351C60.7041 339.143 50.8575 329.296 39 322.45C27.1425 315.604 13.6919 312 2.12736e-05 312C-6.84591 300.143 -16.6925 290.296 -28.55 283.45C-40.4075 276.604 -53.8581 273 -67.55 273" stroke="#1E1E1E" stroke-width="2"/>
<path d="M337.75 273C324.058 273 310.607 276.604 298.75 283.45C286.892 290.296 277.046 300.143 270.2 312C256.508 312 243.057 315.604 231.2 322.45C219.342 329.296 209.496 339.143 202.65 351C188.958 351 175.507 354.604 163.65 361.45C151.792 368.296 141.946 378.143 135.1 390" stroke="#1E1E1E" stroke-width="2"/>
<path d="M-67.55 39C-53.8581 39 -40.4075 35.3959 -28.55 28.55C-16.6925 21.7041 -6.84595 11.8575 -2.02507e-05 7.00771e-07C13.6918 1.16487e-07 27.1425 -3.60409 39 -10.45C50.8575 -17.2959 60.704 -27.1425 67.55 -39C81.2418 -39 94.6925 -42.6041 106.55 -49.45C118.407 -56.2959 128.254 -66.1425 135.1 -78" stroke="#1E1E1E" stroke-width="2"/>
<path d="M135.1 -77.9999C141.946 -66.1424 151.793 -56.2958 163.65 -49.4499C175.508 -42.604 188.958 -38.9999 202.65 -38.9999C209.496 -27.1424 219.343 -17.2958 231.2 -10.4499C243.058 -3.60398 256.508 0.000105185 270.2 0.000105769C277.046 11.8576 286.893 21.7042 298.75 28.5501C310.608 35.396 324.058 39.0001 337.75 39.0001" stroke="#1E1E1E" stroke-width="2"/>
</g>
<defs>
<clipPath id="clip0_3_4434">
<rect width="270" height="312" fill="white"/>
</clipPath>
</defs>
</svg>
